<svg xmlns="http://www.w3.org/2000/svg" xmlns:xlink="http://www.w3.org/1999/xlink" width="167.699" height="108.387" viewBox="0 0 167.699 108.387">
  <defs>
    <clipPath id="clip-path">
      <rect id="Rectangle_469" data-name="Rectangle 469" width="167.699" height="108.387" fill="none"/>
    </clipPath>
  </defs>
  <g id="hassle_free_delivery_icon" clip-path="url(#clip-path)">
    <g id="hassle_free_delivery_icon-2" data-name="hassle_free_delivery_icon" transform="translate(-539.874 -500.494)">
      <path id="Path_7889" data-name="Path 7889" d="M656.172,501.5v84.091m-90.094-11.06h-25.2m28.963,11.235H554.7c.079,0,0-.078,0-.175m108.006.176H601.535M658.8,563.3l35.423,22.471H706.37l.011-1.769V560.306A13.891,13.891,0,0,0,694.607,546.6l-4.355-17.421a2.634,2.634,0,0,0,2.084-2.575V523.75a11.02,11.02,0,0,0-11.02-11.02H661.439V506.9a5.4,5.4,0,0,0-5.4-5.4h-101.2a5.4,5.4,0,0,0-5.4,5.4l.328,51.076m156.421.013c-1.617-7.218-11.057-6.151-11.314-6.142l-33.431-.139v34.058h1.268m-1.268-56.529h23.4l4.3,17.2h-27.7Zm-75.665,73.382A11.411,11.411,0,1,1,597.185,591.2a11.411,11.411,0,0,1-11.407,11.419Zm92.693,0A11.411,11.411,0,1,1,689.879,591.2a11.411,11.411,0,0,1-11.408,11.419Zm0,5.267A16.678,16.678,0,1,1,695.146,591.2a16.679,16.679,0,0,1-16.675,16.686Zm-93.05,0A16.678,16.678,0,1,1,602.1,591.2a16.678,16.678,0,0,1-16.679,16.686Zm115.34-36.143a5.821,5.821,0,0,1-5.815-5.815v-5.815h11.63v11.63Z" fill="none" stroke="#006e5a" stroke-linecap="round" stroke-linejoin="round" stroke-width="2"/>
      <path id="Path_7890" data-name="Path 7890" d="M667.755,758.029a5.442,5.442,0,1,0,5.442,5.442,5.442,5.442,0,0,0-5.442-5.442Z" transform="translate(-81.549 -172.267)" fill="#006e5a"/>
      <path id="Path_7891" data-name="Path 7891" d="M949.943,758.029a5.442,5.442,0,1,0,5.442,5.442,5.442,5.442,0,0,0-5.442-5.442Z" transform="translate(-271.043 -172.267)" fill="#006e5a"/>
      <path id="Path_7892" data-name="Path 7892" d="M786.614,723.825H747.29" transform="translate(-138.612 -149.299)" fill="#fff" stroke="#006e5a" stroke-linecap="round" stroke-linejoin="round" stroke-width="2"/>
      <path id="Path_7893" data-name="Path 7893" d="M559.165,705.654h33.707" transform="translate(-12.283 -137.097)" fill="#fff" stroke="#006e5a" stroke-linecap="round" stroke-linejoin="round" stroke-width="2"/>
      <g id="Group_1034" data-name="Group 1034" transform="translate(562.23 523.073)">
        <path id="Path_7894" data-name="Path 7894" d="M625.283,575.655c-.144-.165-.283-.335-.433-.494a9.932,9.932,0,0,0-3.736-2.447,9.6,9.6,0,0,0-2.669-.625,10.448,10.448,0,0,0-8.719,3.224,11.857,11.857,0,0,0-2.61,4.293,12.641,12.641,0,0,0-.679,2.895,12.278,12.278,0,0,0-.058,2.341,12.96,12.96,0,0,0,2.708,7.1,13.445,13.445,0,0,0,3.976,3.4,15.261,15.261,0,0,0,4.973,1.836c.625.112,1.261.163,1.893.229.264.028.532.024.8.029a15.479,15.479,0,0,0,6.243-1.185,14.943,14.943,0,0,0,4.07-2.459c.515-.439.99-.927,1.475-1.4a.389.389,0,0,1,.328-.144c.13.012.262,0,.428,0-.151.17-.28.322-.416.468a16.135,16.135,0,0,1-7.639,4.624,13.181,13.181,0,0,1-2.311.446c-.674.061-1.351.133-2.026.129a16.031,16.031,0,0,1-6.856-1.547,14.92,14.92,0,0,1-4.181-2.879,13.424,13.424,0,0,1-2.561-15.461,11.629,11.629,0,0,1,3.55-4.319,11,11,0,0,1,4.543-1.96,10.277,10.277,0,0,1,2.359-.184,10.682,10.682,0,0,1,7.275,3.091,8.772,8.772,0,0,1,2.494,4.869c.071.413.172.822.24,1.236a8.621,8.621,0,0,1,.086,1.958,8.973,8.973,0,0,1-.522,2.539,9.248,9.248,0,0,1-4.187,4.964,9.039,9.039,0,0,1-3.158,1.1,9.245,9.245,0,0,1-2.189.065,8.993,8.993,0,0,1-4.89-1.913A9.166,9.166,0,0,1,609.468,584a8.727,8.727,0,0,1-.184-2.263,9.327,9.327,0,0,1,7.147-8.635,8.9,8.9,0,0,1,2.772-.226,9.176,9.176,0,0,1,5.389,2.207c.19.161.364.339.546.509l.107.1Zm-4.416,2.261-.035.052c.035.026.07.054.107.078a4.311,4.311,0,0,1,.9.754,4.186,4.186,0,0,1,1.12,2.6,4.234,4.234,0,0,1-.526,2.376,3.588,3.588,0,0,1-4.5,1.661,3,3,0,0,1-1.9-3.619,2.547,2.547,0,0,1,2.953-1.947,2.166,2.166,0,0,1,1.827,2.375,1.844,1.844,0,0,1-2.074,1.675,1.553,1.553,0,0,1-1.349-1.793,1.3,1.3,0,0,1,1.559-1.09,1.1,1.1,0,0,1,.756,1.641c-.1.17-.227.22-.354.146s-.15-.2-.054-.377c.015-.028.031-.055.043-.084a.616.616,0,0,0-.193-.729.794.794,0,0,0-.949,0,1.007,1.007,0,0,0-.2,1.32,1.264,1.264,0,0,0,1.678.337,1.587,1.587,0,0,0,.386-2.247,1.973,1.973,0,0,0-2.6-.453,2.29,2.29,0,0,0-1.053,2.207,2.368,2.368,0,0,0,.61,1.461,3.076,3.076,0,0,0,4.381.1,3.635,3.635,0,0,0,1.069-3.027,3.534,3.534,0,0,0-.572-1.676,4.353,4.353,0,0,0-3.628-1.945,4.411,4.411,0,0,0-2.079.427,3.392,3.392,0,0,0-1.147.76,4.642,4.642,0,0,0-1.094,4.523,4.756,4.756,0,0,0,4.416,3.508,4.636,4.636,0,0,0,2.124-.407,4.772,4.772,0,0,0,2.808-5.044,4.628,4.628,0,0,0-1.635-2.974A9.286,9.286,0,0,0,620.867,577.916Z" transform="translate(-605.89 -570.123)" fill="#69b244" fill-rule="evenodd"/>
        <path id="Path_7895" data-name="Path 7895" d="M791.144,577.512c0-.18.006-.319,0-.458-.006-.108.035-.141.141-.141h4.208c.137,0,.139.069.139.17v16.994a.538.538,0,0,1-.465.491,1.662,1.662,0,0,1-.176.008h-3.2a.564.564,0,0,1-.464-.144.675.675,0,0,1-.167-.325c-.048-.36-.24-.484-.586-.357-.564.208-1.126.422-1.7.611a9.809,9.809,0,0,1-2.007.443,7.255,7.255,0,0,1-1.621-.044,8.751,8.751,0,0,1-2.617-.714,9.245,9.245,0,0,1-4.833-4.907,8.606,8.606,0,0,1-.673-2.587,9.3,9.3,0,0,1,6.912-9.994,10.767,10.767,0,0,1,1.6-.26,8.007,8.007,0,0,1,1.287-.026,9.407,9.407,0,0,1,4.046,1.149A1.544,1.544,0,0,0,791.144,577.512Zm-9.58,8.019a4.787,4.787,0,1,0,4.786-4.774,4.787,4.787,0,0,0-4.786,4.774Z" transform="translate(-720.837 -573.279)" fill="#69b244" fill-rule="evenodd"/>
        <path id="Path_7896" data-name="Path 7896" d="M672.625,594.017h-7.14a.259.259,0,0,1-.243-.389,4.787,4.787,0,0,1,.229-.431l3.248-5.8,3.588-6.4c.079-.142.16-.283.238-.426.174-.321.035-.562-.329-.563h-3.271a.575.575,0,0,1-.636-.639q0-1.608,0-3.216a.565.565,0,0,1,.624-.634h10.994a1.076,1.076,0,0,1,.176.011.257.257,0,0,1,.19.392c-.115.236-.247.462-.375.691q-1.815,3.243-3.632,6.485l-3.2,5.716a2.545,2.545,0,0,0-.127.24.313.313,0,0,0,.244.469.979.979,0,0,0,.2.013h6.23a.559.559,0,0,1,.628.626q0,1.622,0,3.244a.55.55,0,0,1-.62.617Z" transform="translate(-645.725 -572.777)" fill="#69b244" fill-rule="evenodd"/>
        <path id="Path_7897" data-name="Path 7897" d="M732.422,575.431h1.818a.958.958,0,0,1,.938.591l3.513,7.4.012.024c.063.117.125.243.28.244s.225-.121.282-.24q.547-1.144,1.09-2.29l1.751-3.688c.233-.49.462-.981.7-1.47a.934.934,0,0,1,.9-.569h3.814c.306.013.429.2.306.488-.082.191-.176.377-.266.565l-3.284,6.908q-2.07,4.355-4.138,8.71c-.295.621-.587,1.243-.884,1.862-.056.116-.1.26-.262.261s-.207-.143-.262-.259q-1.125-2.364-2.246-4.728L731.1,577.919q-.466-.98-.929-1.961a.386.386,0,0,1-.049-.336.327.327,0,0,1,.344-.189h1.615Z" transform="translate(-689.3 -572.722)" fill="#69b244" fill-rule="evenodd"/>
        <path id="Path_7898" data-name="Path 7898" d="M713.648,584.718v-8.645a.761.761,0,0,1,.034-.266.506.506,0,0,1,.49-.363h3.434a.526.526,0,0,1,.525.53c0,.058,0,.117,0,.176v17.385a.538.538,0,0,1-.472.484c-.04,0-.081.007-.122.007h-3.284a.55.55,0,0,1-.587-.422.945.945,0,0,1-.017-.229Q713.648,589.047,713.648,584.718Z" transform="translate(-678.251 -572.73)" fill="#69b244" fill-rule="evenodd"/>
        <path id="Path_7899" data-name="Path 7899" d="M664.965,569.221v-1.873c0-.125.035-.163.161-.162h2.4c.166,0,.168,0,.129.156q-.48,1.891-.958,3.782a.158.158,0,0,1-.187.14q-.692-.008-1.384,0c-.123,0-.164-.033-.163-.16C664.968,570.479,664.965,569.85,664.965,569.221Z" transform="translate(-645.558 -567.187)" fill="#69b244" fill-rule="evenodd"/>
        <path id="Path_7900" data-name="Path 7900" d="M843.583,569.179c.05-.158.1-.315.149-.474.142-.462.287-.923.422-1.387a.152.152,0,0,1,.182-.132c.108.007.217,0,.325,0,.075,0,.1.029.1.1v2.293c0,.127-.09.1-.162.1s-.175.029-.171-.106v-1.818a1.44,1.44,0,0,0-.017-.162h-.038c-.017.048-.036.1-.051.145-.183.6-.368,1.191-.546,1.788-.033.11-.076.165-.2.162s-.2-.023-.245-.164c-.186-.618-.384-1.233-.579-1.848-.014-.043-.035-.084-.052-.127l-.04.008c0,.051-.008.1-.008.152v1.8c0,.125-.028.177-.164.174s-.173-.031-.172-.166q.009-1.092,0-2.184c0-.119.034-.156.154-.155.425,0,.425,0,.554.4q.232.729.462,1.46c.014.045.033.088.05.133Z" transform="translate(-764.656 -567.186)" fill="#69b244" fill-rule="evenodd"/>
        <path id="Path_7901" data-name="Path 7901" d="M835.95,568.6v-.936c0-.11-.03-.154-.145-.15-.185.008-.371,0-.556,0-.118,0-.123-.065-.115-.148s-.038-.182.11-.181h1.791c.141,0,.115.093.119.176s-.008.159-.128.154c-.181-.007-.362,0-.543,0-.119-.005-.157.037-.156.156v1.859c0,.051-.027.144-.05.146a1.239,1.239,0,0,1-.3-.014c-.013,0-.022-.072-.023-.111Q835.951,569.079,835.95,568.6Z" transform="translate(-759.831 -567.189)" fill="#69b244" fill-rule="evenodd"/>
      </g>
    </g>
  </g>
</svg>
