<svg xmlns="http://www.w3.org/2000/svg" width="60" height="60" viewBox="0 0 60 60">
  <g id="step_2" data-name="step 2" transform="translate(-179.874 -4040.874)">
    <g id="Rectangle_2286" data-name="Rectangle 2286" transform="translate(179.874 4040.874)" fill="#fff" stroke="#707070" stroke-width="1" opacity="0">
      <rect width="60" height="60" stroke="none"/>
      <rect x="0.5" y="0.5" width="59" height="59" fill="none"/>
    </g>
    <g id="night-svgrepo-com" transform="translate(208.924 4091.355) rotate(-90)">
      <path id="Path_21599" data-name="Path 21599" d="M21.178,14.091a10.928,10.928,0,0,1-2.858.437A10.1,10.1,0,0,1,8.142,4.541,11.32,11.32,0,0,1,8.879.821.593.593,0,0,0,8.765.2.6.6,0,0,0,8.154.024,11.261,11.261,0,0,0,2.271,4.056,10.948,10.948,0,0,0,0,10.736,11.278,11.278,0,0,0,11.335,21.927h0a11.345,11.345,0,0,0,10.556-7.033.608.608,0,0,0-.108-.623A.6.6,0,0,0,21.178,14.091Zm-9.843,6.638A10.076,10.076,0,0,1,1.2,10.736,10.034,10.034,0,0,1,7.369,1.57h0A12.851,12.851,0,0,0,6.95,4.506v.018A11.3,11.3,0,0,0,18.327,15.715a10.787,10.787,0,0,0,1.935-.192A10.166,10.166,0,0,1,11.335,20.729Z" transform="translate(0 0)" fill="#006e5a" stroke="#006e5a" stroke-width="0.3"/>
    </g>
    <line id="Line_734" data-name="Line 734" y1="27.612" x2="28.2" transform="translate(194.825 4057.012)" fill="none" stroke="#006e5a" stroke-width="1"/>
    <path id="day-sunny-svgrepo-com" d="M10.294,21.234V18.542a.65.65,0,0,1,1.3,0v2.692a.65.65,0,0,1-1.3,0Zm7.468-2.557-1.9-1.9a.65.65,0,1,1,.919-.919l1.9,1.9a.65.65,0,0,1-.92.914h0Zm-14.555,0a.649.649,0,0,1,0-.919l1.9-1.9a.65.65,0,1,1,.919.919l-1.9,1.9a.649.649,0,0,1-.919,0ZM5.763,10.94a5.182,5.182,0,1,1,5.182,5.182A5.182,5.182,0,0,1,5.763,10.94Zm1.3,0a3.884,3.884,0,1,0,3.884-3.884A3.884,3.884,0,0,0,7.062,10.94Zm11.481.65a.65.65,0,1,1,0-1.3h2.692a.65.65,0,1,1,0,1.3ZM.65,11.59a.65.65,0,0,1,0-1.3H3.343a.65.65,0,0,1,0,1.3ZM15.857,6.025a.649.649,0,0,1,0-.919l1.9-1.9a.65.65,0,1,1,.919.919l-1.9,1.9a.649.649,0,0,1-.919,0Zm-10.749,0-1.9-1.9a.65.65,0,1,1,.919-.919l1.9,1.9a.65.65,0,1,1-.919.919Zm5.184-2.684V.65a.65.65,0,0,1,1.3,0V3.342a.65.65,0,0,1-1.3,0Z" transform="translate(185.57 4046.07)" fill="#006e5a" stroke="#006e5a" stroke-width="0.3"/>
  </g>
</svg>
