<svg xmlns="http://www.w3.org/2000/svg" xmlns:xlink="http://www.w3.org/1999/xlink" width="16.914" height="18.286" viewBox="0 0 16.914 18.286">
  <defs>
    <filter id="Path_9734" x="0" y="0" width="16.914" height="18.286" filterUnits="userSpaceOnUse">
      <feOffset input="SourceAlpha"/>
      <feGaussianBlur stdDeviation="0.5" result="blur"/>
      <feFlood flood-opacity="0.161"/>
      <feComposite operator="in" in2="blur"/>
      <feComposite in="SourceGraphic"/>
    </filter>
  </defs>
  <g id="subscription_security_icon" transform="translate(1.5 1.5)">
    <g id="Group_1235" data-name="Group 1235" transform="translate(0 0)">
      <g transform="matrix(1, 0, 0, 1, -1.5, -1.5)" filter="url(#Path_9734)">
        <path id="Path_9734-2" data-name="Path 9734" d="M11.51,2.7A10.154,10.154,0,0,1,4.975,5.269c-1.507,2.315,1.1,11.423,6.534,12.72,5.437-1.3,8.041-10.405,6.535-12.72A10.155,10.155,0,0,1,11.51,2.7Z" transform="translate(-3.05 -1.2)" fill="#fff"/>
      </g>
      <g id="Group_1234" data-name="Group 1234" transform="translate(1.135 1.447)">
        <path id="Path_9735" data-name="Path 9735" d="M11.948,17.4l-.024-.006c-2.8-.738-4.313-3.857-4.835-5.164C6.164,9.918,6.1,8.01,6.438,7.145l.024-.06h.065a9.293,9.293,0,0,0,5.362-2.074l.06-.048.06.048a9.293,9.293,0,0,0,5.362,2.074h.065l.024.06c.342.866.273,2.773-.651,5.082-.522,1.307-2.04,4.426-4.835,5.164ZM6.593,7.274a8.089,8.089,0,0,0,.672,4.882c.51,1.276,1.986,4.316,4.682,5.044,2.7-.728,4.172-3.768,4.682-5.044A8.085,8.085,0,0,0,17.3,7.274a9.507,9.507,0,0,1-5.355-2.068A9.507,9.507,0,0,1,6.593,7.274Z" transform="translate(-6.249 -4.963)" fill="#006e5a" stroke="#006e5a" stroke-width="0.2"/>
      </g>
    </g>
    <path id="tick" d="M21,28.045l2.337,2.337L27.718,26" transform="translate(-17.402 -20.548)" fill="none" stroke="#006e5a" stroke-linecap="round" stroke-miterlimit="10" stroke-width="1"/>
  </g>
</svg>
