<svg xmlns="http://www.w3.org/2000/svg" width="50" height="50" viewBox="0 0 50 50">
  <g id="No_Added_sugar" data-name="No Added sugar" transform="translate(2.493 2.392)">
    <g id="no_added_sugar_icon" transform="translate(0 0.108)">
      <g id="bond" transform="translate(-2.493 -2.5)" fill="#fff" stroke="#707070" stroke-width="1" opacity="0">
        <rect width="50" height="50" stroke="none"/>
        <rect x="0.5" y="0.5" width="49" height="49" fill="none"/>
      </g>
      <ellipse id="Ellipse_69" data-name="Ellipse 69" cx="22.5" cy="22.5" rx="22.5" ry="22.5" fill="none" stroke="#006e5a" stroke-linecap="round" stroke-miterlimit="10" stroke-width="1"/>
      <line id="Line_97" data-name="Line 97" x2="10.765" y2="11.761" transform="translate(27.137 27.139)" fill="none" stroke="#006e5a" stroke-linecap="round" stroke-miterlimit="10" stroke-width="1"/>
      <line id="Line_98" data-name="Line 98" x2="9.998" y2="11.11" transform="translate(7.868 6.41)" fill="none" stroke="#006e5a" stroke-linecap="round" stroke-miterlimit="10" stroke-width="1"/>
      <g id="Group_543" data-name="Group 543" transform="translate(7.522 16.844)">
        <path id="Path_427" data-name="Path 427" d="M1617.86,311.259l8.709-4.588a.651.651,0,0,0,.348-.576v-8.1a.415.415,0,0,0-.608-.367l-8.229,4.335a.651.651,0,0,0-.347.576v8.647A.087.087,0,0,0,1617.86,311.259Z" transform="translate(-1608.78 -293.11)" fill="none" stroke="#006e5a" stroke-linecap="round" stroke-miterlimit="10" stroke-width="1"/>
        <path id="Path_428" data-name="Path 428" d="M1594.763,311.259l-8.709-4.588a.65.65,0,0,1-.347-.576v-8.1a.415.415,0,0,1,.608-.367l8.229,4.335a.651.651,0,0,1,.347.576v8.647A.087.087,0,0,1,1594.763,311.259Z" transform="translate(-1585.707 -293.11)" fill="none" stroke="#006e5a" stroke-linecap="round" stroke-miterlimit="10" stroke-width="1"/>
        <path id="Path_429" data-name="Path 429" d="M1603.35,286.033l-8.838,4.652-8.776-4.472a.052.052,0,0,1,0-.092l8.579-4.469a.443.443,0,0,1,.4-.005l8.635,4.23A.087.087,0,0,1,1603.35,286.033Z" transform="translate(-1585.707 -281.603)" fill="none" stroke="#006e5a" stroke-linecap="round" stroke-miterlimit="10" stroke-width="1"/>
      </g>
      <g id="Group_544" data-name="Group 544" transform="translate(20.215 9.997)">
        <path id="Path_430" data-name="Path 430" d="M1663.267,286.766l8.709-4.588a.65.65,0,0,0,.347-.575v-8.1a.414.414,0,0,0-.608-.367l-8.229,4.335a.65.65,0,0,0-.347.575v8.647A.087.087,0,0,0,1663.267,286.766Z" transform="translate(-1654.187 -268.618)" fill="none" stroke="#006e5a" stroke-linecap="round" stroke-miterlimit="10" stroke-width="1"/>
        <path id="Path_431" data-name="Path 431" d="M1631.113,276.875V273.5a.415.415,0,0,1,.608-.367l8.229,4.335a.65.65,0,0,1,.347.575v8.647a.087.087,0,0,1-.128.077l-3.362-1.771" transform="translate(-1631.113 -268.618)" fill="none" stroke="#006e5a" stroke-linecap="round" stroke-miterlimit="10" stroke-width="1"/>
        <path id="Path_432" data-name="Path 432" d="M1648.757,261.54l-8.838,4.652-8.776-4.471a.052.052,0,0,1,0-.092l8.579-4.469a.442.442,0,0,1,.4,0l8.635,4.23A.087.087,0,0,1,1648.757,261.54Z" transform="translate(-1631.114 -257.11)" fill="none" stroke="#006e5a" stroke-linecap="round" stroke-miterlimit="10" stroke-width="1"/>
      </g>
    </g>
  </g>
</svg>
