<svg xmlns="http://www.w3.org/2000/svg" width="50" height="50" viewBox="0 0 50 50">
  <g id="vegan" transform="translate(-72.19 -1318.726)">
    <g id="vegan_icon" transform="translate(-0.5 -0.192)">
      <g id="bond" transform="translate(72.69 1318.918)" fill="#fff" stroke="#707070" stroke-width="1" opacity="0">
        <rect width="50" height="50" stroke="none"/>
        <rect x="0.5" y="0.5" width="49" height="49" fill="none"/>
      </g>
      <g id="Group_1003" data-name="Group 1003" transform="translate(75.19 1321.418)">
        <path id="Path_7772" data-name="Path 7772" d="M81.35,1364.178a22.5,22.5,0,1,0,33.592-29.831h0a22.5,22.5,0,0,0-35.582,26.837m35.587-26.836" transform="translate(-76.528 -1327.756)" fill="none" stroke="#006e5a" stroke-linecap="round" stroke-linejoin="round" stroke-width="1.5"/>
      </g>
      <g id="Group_1004" data-name="Group 1004" transform="translate(90.514 1325.54)">
        <path id="Path_7773" data-name="Path 7773" d="M110.011,1379.162v-6.074c3.073-.328,5.844-5.178,5.843-10.577a34.06,34.06,0,0,0-.886-7.347,54.141,54.141,0,0,0-1.929-6.547,58.782,58.782,0,0,0-2.8-6.558.281.281,0,0,0-.543,0,58.864,58.864,0,0,0-2.8,6.558,54.235,54.235,0,0,0-1.927,6.55,34.062,34.062,0,0,0-.887,7.347,14.621,14.621,0,0,0,1.723,7.2,5.712,5.712,0,0,0,4.085,2.962" transform="translate(-104.088 -1341.848)" fill="none" stroke="#006e5a" stroke-linecap="round" stroke-linejoin="round" stroke-width="1.5"/>
        <path id="Path_7774" data-name="Path 7774" d="M124.675,1361.74c-.073.366,0,12.065,0,12.065" transform="translate(-118.628 -1346.269)" fill="none" stroke="#006e5a" stroke-linecap="round" stroke-linejoin="round" stroke-width="1.5"/>
        <line id="Line_213" data-name="Line 213" y1="2.023" x2="2.17" transform="translate(6.191 19.399)" fill="none" stroke="#006e5a" stroke-linecap="round" stroke-linejoin="round" stroke-width="1.5"/>
        <line id="Line_214" data-name="Line 214" x2="2.048" y2="2.096" transform="translate(3.778 14.139)" fill="none" stroke="#006e5a" stroke-linecap="round" stroke-linejoin="round" stroke-width="1.5"/>
        <line id="Line_215" data-name="Line 215" x2="1.95" y2="1.609" transform="translate(3.876 25.849)" fill="none" stroke="#006e5a" stroke-linecap="round" stroke-linejoin="round" stroke-width="1.5"/>
        <line id="Line_216" data-name="Line 216" x1="2.072" y1="2.023" transform="translate(3.973 19.399)" fill="none" stroke="#006e5a" stroke-linecap="round" stroke-linejoin="round" stroke-width="1.5"/>
        <line id="Line_217" data-name="Line 217" x1="2.048" y2="2.121" transform="translate(6.118 14.501)" fill="none" stroke="#006e5a" stroke-linecap="round" stroke-linejoin="round" stroke-width="1.5"/>
        <line id="Line_218" data-name="Line 218" x1="1.95" y2="2.072" transform="translate(6.118 25.944)" fill="none" stroke="#006e5a" stroke-linecap="round" stroke-linejoin="round" stroke-width="1.5"/>
      </g>
    </g>
  </g>
</svg>
